<svg version="1.1" id="Layer_1" xmlns="http://www.w3.org/2000/svg" xmlns:xlink="http://www.w3.org/1999/xlink" x="0px" y="0px"
	 width="100%" viewBox="0 0 879 887" enable-background="new 0 0 879 887" xml:space="preserve">
<path fill="#030303" opacity="1.000000" stroke="none" 
	d="
M1.000000,106.000000 
	C1.000000,81.312439 1.000000,56.624878 1.375725,31.515282 
	C9.098892,34.484669 16.629250,34.402954 24.534563,33.240593 
	C33.324131,31.948217 42.273273,31.742805 51.152283,31.055670 
	C52.951141,30.916458 54.747059,30.739267 56.544334,30.579584 
	C55.952641,28.792732 55.496643,26.946581 54.746120,25.229137 
	C51.208290,17.133438 47.589748,9.073009 44.000000,1.000000 
	C134.687561,1.000000 225.375122,1.000000 316.530151,1.414401 
	C316.629913,3.777369 316.167511,5.713504 315.909882,7.676514 
	C314.251862,20.310785 313.126251,32.923637 322.362152,43.527798 
	C326.144867,47.870941 330.454620,51.750511 334.417389,55.942326 
	C345.209076,67.357727 359.339722,70.879486 374.120575,73.044876 
	C377.486115,73.537918 380.883545,74.364182 384.038269,75.613022 
	C388.477051,77.370178 390.167267,76.690590 390.964752,72.174461 
	C392.706665,62.310520 394.697479,52.486862 396.245483,42.593376 
	C397.855164,32.305847 397.598999,22.185934 392.393097,12.677295 
	C390.338898,8.925302 388.782867,4.900554 387.000000,1.000001 
	C549.687561,1.000000 712.375122,1.000000 875.536133,1.466023 
	C876.010498,22.733900 876.016968,43.535755 876.011414,64.337608 
	C875.991211,140.555206 875.967102,216.772797 875.538330,292.994202 
	C872.738770,293.560272 870.163269,293.733612 867.984375,294.753998 
	C859.792542,298.590210 851.457153,302.239594 843.684570,306.822418 
	C832.662598,313.321075 822.064392,320.532501 817.623962,333.611267 
	C815.874939,338.762726 813.796326,343.802338 812.049133,348.954376 
	C808.604004,359.113251 805.034485,369.241364 802.014587,379.528442 
	C800.364563,385.149139 801.778442,386.082031 807.490723,387.071625 
	C816.065063,388.557007 824.497131,390.850677 833.057800,392.431580 
	C841.774536,394.041321 850.463684,394.531311 859.195312,391.670349 
	C864.596924,389.900452 870.346863,389.193817 875.965820,388.474609 
	C875.974731,470.959747 875.958313,552.980103 875.556763,635.055908 
	C867.773132,636.752747 860.314209,638.174377 853.016663,640.182251 
	C851.066650,640.718750 848.436768,642.825684 848.105103,644.585876 
	C844.189758,665.365112 843.241882,685.790161 858.210938,703.332581 
	C863.038513,708.990051 868.099670,714.465881 875.948792,716.475159 
	C875.972839,768.623901 875.967896,820.308167 875.619385,871.956177 
	C860.744080,858.319763 841.978088,861.155457 825.330261,858.114563 
	C827.633972,868.436768 829.816956,878.218384 832.000000,888.000000 
	C778.312439,888.000000 724.624878,888.000000 670.468018,887.569031 
	C669.883911,874.856445 665.004211,863.939697 659.911804,853.167542 
	C658.757324,850.725464 656.014343,849.034302 653.963440,846.654053 
	C648.793091,838.659119 641.576599,833.553955 633.570251,829.293091 
	C620.943726,822.573608 607.440247,821.330566 593.495422,822.323914 
	C584.394836,822.972107 575.282776,823.459656 566.180969,824.092407 
	C564.853638,824.184692 563.554688,824.685486 563.473022,824.704895 
	C564.735840,832.387817 566.319946,839.213257 566.888062,846.122192 
	C567.804810,857.270996 569.674683,868.086365 574.571167,878.243286 
	C576.121765,881.459717 577.527832,884.745789 579.000000,888.000000 
	C486.312439,888.000000 393.624878,888.000000 300.469177,887.541870 
	C299.466614,882.672058 299.847229,877.890137 298.238159,873.913269 
	C291.551147,857.386108 278.426239,846.387695 264.173035,836.715637 
	C258.235504,832.686462 251.651779,829.594421 245.275513,826.240540 
	C244.106689,825.625671 242.521820,825.801758 241.128998,825.612793 
	C241.012253,826.971619 240.622879,828.372498 240.825211,829.682007 
	C241.777588,835.845398 244.475052,842.211853 243.628128,848.084534 
	C241.711182,861.376831 239.221649,874.506042 241.000000,888.000000 
	C161.092194,888.000000 81.184372,888.000000 1.000000,888.000000 
	C1.000000,841.646118 1.000000,795.291748 1.459098,748.468384 
	C15.038386,748.388550 27.023102,743.941467 38.804340,738.992004 
	C44.573696,736.568359 51.023617,734.364990 55.348183,730.182739 
	C65.473038,720.391113 73.974136,709.036804 79.988678,696.163818 
	C82.707855,690.343994 84.005165,683.854858 86.776260,678.066040 
	C88.556816,674.346436 87.691498,673.244324 84.322487,671.868591 
	C77.957176,669.269470 71.678802,666.414001 65.533684,663.327759 
	C50.601219,655.828064 35.341919,655.133911 19.886137,661.141846 
	C13.420022,663.655334 7.285364,667.021484 1.000002,670.000000 
	C1.000000,502.979095 1.000000,335.958221 1.402152,168.468262 
	C4.372302,167.076645 7.143293,166.506210 9.469976,165.165009 
	C16.259092,161.251495 23.110046,157.304855 27.270264,149.787186 
	C29.693659,143.537933 32.694534,137.643997 33.758282,131.419037 
	C34.835400,125.115791 33.996502,118.485115 33.990337,111.607384 
	C33.773911,108.216896 31.998226,108.009415 29.447237,108.247147 
	C26.557817,108.516418 23.597561,108.345329 20.694176,108.080208 
	C14.120944,107.479958 7.563729,106.704315 1.000000,106.000000 
M538.770569,92.993523 
	C546.540039,90.733139 551.792908,85.916954 554.005371,77.143730 
	C554.791992,70.793655 551.771362,66.110352 546.946594,62.683315 
	C540.882019,58.375648 534.095093,56.924179 526.619934,58.592365 
	C517.637207,60.596954 508.618286,62.574528 499.513489,63.823582 
	C496.300751,64.264320 492.788788,62.523560 488.695679,61.620441 
	C492.091858,66.885773 494.738800,72.109428 498.417511,76.460846 
	C506.182465,85.645790 514.467102,94.408463 528.717407,94.341675 
	C531.815674,93.898361 534.913940,93.455055 538.770569,92.993523 
M252.830353,272.047028 
	C254.539154,271.505035 256.441559,271.279419 257.926117,270.371002 
	C269.808533,263.099915 269.490967,241.037476 256.647675,230.860931 
	C256.365143,233.559357 256.136688,235.741104 255.232956,238.044876 
	C252.731735,240.625626 250.078995,243.078201 247.763138,245.815750 
	C243.821701,250.474869 240.074112,255.209747 239.506256,261.757355 
	C239.125183,266.151276 243.347931,273.279999 247.631531,273.810852 
	C249.016098,273.982452 250.580917,272.699585 252.830353,272.047028 
M101.513710,362.479950 
	C101.721901,364.260834 101.878189,366.049622 102.148232,367.821075 
	C102.893349,372.708923 104.688599,377.492249 110.204056,377.679077 
	C116.471764,377.891388 123.675896,380.695892 128.614441,373.858002 
	C129.780670,372.243286 130.930328,370.616608 132.476089,369.589478 
	C133.342056,370.932373 134.427887,372.182312 135.040787,373.632172 
	C143.203293,392.941742 151.325424,412.268494 159.405151,431.612885 
	C167.613312,451.264771 175.724701,470.957092 183.954575,490.599823 
	C188.337631,501.061096 193.568298,504.535187 204.112122,504.312805 
	C214.914658,504.084991 220.472794,500.101929 224.405716,489.853302 
	C225.169235,487.863678 226.120407,485.946045 227.598633,484.275543 
	C228.283875,484.731689 229.176270,485.040039 229.623016,485.666321 
	C235.603790,494.050049 243.860092,496.778229 253.840469,496.073334 
	C260.009247,495.637634 262.842651,493.487762 264.567505,486.412170 
	C266.539825,472.176880 258.043152,461.381866 242.629593,458.496674 
	C241.394897,457.657196 240.160202,456.817688 238.926483,455.242737 
	C251.910782,422.963776 264.951355,390.707245 277.836212,358.388641 
	C280.729034,351.132721 283.557526,343.786469 285.545502,336.252197 
	C287.675812,328.178558 284.006348,320.890991 277.565643,318.235657 
	C265.913696,313.431854 254.359161,318.432312 249.987473,330.204224 
	C247.378769,337.228790 244.913223,344.307556 242.233215,351.304443 
	C231.213257,380.075165 220.111343,408.814453 209.102982,437.589569 
	C207.223663,442.501953 205.653915,447.532776 203.594849,453.514984 
	C202.508087,451.436707 201.805893,450.370667 201.362610,449.206024 
	C186.438324,409.994476 171.502197,370.787292 156.656982,331.545776 
	C152.005859,319.251129 143.211121,314.554016 130.269638,317.786865 
	C123.042007,319.592346 118.256752,326.620819 119.296211,334.015289 
	C119.573387,335.987030 120.079605,337.926575 119.665672,339.987762 
	C116.822678,341.421631 113.579193,342.383118 111.217842,344.385101 
	C105.862381,348.925446 103.499237,355.296692 101.513710,362.479950 
M532.072571,656.717163 
	C534.721985,659.529358 536.999695,662.870361 540.096008,665.046875 
	C547.152954,670.007507 564.166565,665.992065 568.963745,659.477112 
	C573.065369,653.906799 577.060791,648.228760 580.655212,642.325562 
	C582.859436,638.705444 584.219849,634.571350 585.945862,630.697998 
	C580.432739,631.925903 575.707886,632.978210 570.130554,634.012939 
	C566.552185,633.447693 562.953247,632.988464 559.399048,632.298584 
	C545.894897,629.677124 534.610779,635.300720 529.899414,647.464172 
	C528.759460,650.407288 526.804504,654.290894 532.072571,656.717163 
M212.538010,163.390610 
	C215.578903,167.532959 218.619797,171.675293 221.894119,176.135620 
	C222.973114,171.931137 217.916534,163.915421 210.914474,157.235382 
	C209.500366,153.788986 209.316345,150.687088 210.695328,146.817276 
	C213.498352,138.951279 213.752579,130.641479 212.292160,122.282227 
	C210.273453,110.727371 204.970398,101.138153 196.016220,93.598373 
	C186.545975,85.624031 176.165390,79.386124 163.277939,80.097252 
	C150.785400,80.786575 138.331482,82.219643 125.881828,83.528145 
	C125.161629,83.603836 124.109428,85.488960 124.095306,86.543831 
	C123.958122,96.789963 123.139236,107.129227 124.194458,117.267090 
	C126.194023,136.477463 137.026184,150.467499 153.510010,159.730988 
	C159.374588,163.026749 166.645157,163.711548 172.999039,166.270645 
	C183.203003,170.380463 192.440231,165.430267 202.069183,163.993179 
	C205.360840,163.501907 208.697235,163.310623 212.538010,163.390610 
M711.114380,489.347443 
	C710.697693,509.131927 701.116943,520.002808 682.054321,522.208801 
	C667.794556,523.859070 654.177246,521.546692 641.189209,515.420166 
	C635.997314,512.971130 630.788330,512.733521 626.146484,516.534973 
	C621.694031,520.181274 621.147400,525.305664 621.660339,530.657104 
	C622.421021,538.593689 627.738403,542.591125 634.493896,545.067749 
	C653.817810,552.152039 673.766052,554.086792 694.043823,550.979797 
	C727.063354,545.920410 746.656677,524.088074 747.271912,490.695648 
	C747.919556,455.545197 747.637329,420.376007 747.587646,385.215271 
	C747.572937,374.775146 741.701660,369.150360 731.439087,368.952179 
	C719.758057,368.726624 713.871399,373.794525 713.200195,384.660370 
	C713.055725,386.999817 712.928772,389.340363 712.793823,391.680389 
	C710.484497,390.186310 709.427856,388.539398 708.441162,386.851593 
	C704.155640,379.520996 698.114929,373.975464 690.105103,371.375671 
	C661.628296,362.132812 628.297363,372.582306 616.898438,405.512817 
	C611.347778,421.548218 611.092529,438.121979 615.610657,454.275452 
	C621.154541,474.096069 633.490967,488.711945 653.900574,494.238586 
	C674.850281,499.911499 693.942017,496.684875 708.483276,478.668518 
	C709.011292,478.014374 709.891357,477.644470 711.122070,476.780945 
	C711.122070,481.124756 711.122070,484.762604 711.114380,489.347443 
M506.582001,316.987122 
	C497.043396,318.722168 493.315247,326.015961 490.002869,333.945526 
	C473.640472,373.115845 457.173004,412.242310 440.732666,451.380096 
	C436.284851,461.968475 431.538788,472.441071 427.422668,483.156219 
	C424.340149,491.180817 427.394623,499.232208 433.977112,502.577057 
	C444.765594,508.059174 457.281738,503.623779 461.667328,492.495850 
	C464.594696,485.067871 467.204468,477.504425 469.661530,469.906219 
	C470.697510,466.702576 472.179901,465.651672 475.684265,465.669861 
	C500.332123,465.797852 524.982178,465.701782 549.629639,465.469788 
	C552.859375,465.439392 554.432068,466.478180 555.593506,469.358643 
	C559.141052,478.156708 562.651184,486.986053 566.658508,495.578156 
	C570.866333,504.600159 582.174683,507.499359 592.614441,502.697906 
	C600.924072,498.876129 603.386108,491.550140 599.305115,481.658691 
	C595.180115,471.660645 590.721558,461.800598 586.444031,451.864990 
	C568.805847,410.896240 551.109680,369.952148 533.619385,328.920319 
	C530.617249,321.877350 525.490234,318.061188 518.313965,316.922455 
	C514.760620,316.358582 511.043579,316.826202 506.582001,316.987122 
M411.261047,480.099854 
	C411.160828,466.715271 403.855286,461.928589 391.780243,467.256805 
	C388.281403,468.800720 384.745331,470.335602 381.096710,471.450562 
	C370.152863,474.794830 359.171783,477.091309 347.823669,472.822235 
	C336.980286,468.743042 327.485687,456.133728 328.143066,445.890503 
	C328.943970,445.890503 329.760651,445.890259 330.577362,445.890564 
	C354.900787,445.900116 379.224243,445.928192 403.547638,445.907867 
	C410.736908,445.901855 414.233704,442.675079 415.000793,435.555725 
	C419.250824,396.112335 388.524445,365.005829 349.102539,369.164948 
	C323.355560,371.881287 304.256287,384.698029 295.690521,409.472076 
	C289.137146,428.425964 290.719330,448.059753 298.369659,466.677002 
	C300.904816,472.846527 304.772949,478.898315 309.378662,483.716248 
	C336.242126,511.817535 378.636353,507.654999 404.882202,491.690643 
	C408.809692,489.301697 410.855316,485.524017 411.261047,480.099854 
M843.176636,80.619926 
	C845.108704,75.342567 847.902222,70.206970 848.798645,64.759201 
	C850.852295,52.279636 846.986023,40.332508 844.153259,29.097523 
	C840.682739,28.253864 837.414856,27.845547 834.446716,26.676146 
	C812.937134,18.201725 792.505920,21.047184 773.935547,33.927601 
	C756.966797,45.697170 747.104431,62.875259 741.928650,82.708427 
	C739.660950,91.398094 740.982056,100.896568 735.372253,108.909134 
	C733.630615,111.396645 735.824463,113.475769 738.872803,113.979256 
	C741.292419,114.378899 743.695984,114.914665 746.074524,115.516930 
	C751.833801,116.975189 757.504883,118.907036 763.337891,119.920616 
	C773.188293,121.632294 782.939697,121.343132 792.911621,119.210861 
	C815.683533,114.341576 832.259644,101.905327 843.176636,80.619926 
M106.095612,649.786255 
	C102.315231,659.315674 103.468735,668.792786 107.134071,677.928589 
	C108.561913,681.487427 111.163475,684.897461 114.072731,687.393433 
	C115.375061,688.510803 118.749725,687.188110 121.187157,687.019104 
	C122.182365,686.950073 123.189293,686.950317 124.185486,687.009705 
	C143.370697,688.154541 155.138260,669.413940 157.171234,654.295105 
	C158.673584,643.122437 151.182083,634.123169 151.575394,622.810303 
	C149.102280,623.451660 147.080536,623.971497 145.061203,624.500671 
	C141.880112,625.334229 138.746780,626.519043 135.512527,626.951416 
	C121.562485,628.816467 112.560295,637.018982 106.095612,649.786255 
M697.352722,199.098114 
	C702.804321,195.994354 708.363403,193.276917 712.222839,187.802887 
	C720.531433,176.018524 717.775024,163.297318 716.587830,150.994720 
	C710.589966,150.994720 704.946899,151.271271 699.339966,150.938873 
	C686.479004,150.176422 676.191589,155.335449 668.589233,165.144730 
	C661.592468,174.172577 658.686523,183.805130 666.244507,194.967255 
	C668.124573,197.743835 669.071045,201.152527 670.111877,203.511780 
	C673.409546,203.035156 677.007385,202.530457 680.600098,201.992294 
	C685.970764,201.187820 691.337891,200.359802 697.352722,199.098114 
M405.996033,741.690613 
	C402.474060,731.250061 394.917725,724.981812 384.641052,722.156677 
	C380.992706,721.153687 376.203796,723.152893 373.105865,721.537354 
	C366.973541,718.339355 366.322601,721.719116 365.439209,726.074829 
	C365.210571,727.202026 364.727692,728.286133 364.290802,729.361328 
	C356.145020,749.407043 370.543549,768.519836 391.953735,765.875244 
	C395.368073,765.453430 400.041199,764.988464 401.719116,762.741394 
	C406.035248,756.961243 407.298828,749.835449 405.996033,741.690613 
M730.995117,749.276489 
	C730.958801,736.244202 725.226562,727.291870 712.887634,723.677551 
	C706.963684,721.942383 700.333496,722.580994 694.016602,722.285034 
	C693.421143,722.257141 692.595032,723.123230 692.185181,723.770203 
	C686.972473,731.998047 686.413818,740.426331 691.154480,749.091064 
	C695.056030,756.221863 701.547729,759.688965 709.109375,760.860901 
	C714.731934,761.732422 720.542175,761.393433 726.941162,761.617065 
	C728.052612,758.468933 729.521057,754.309692 730.995117,749.276489 
M507.605591,299.013031 
	C510.076172,298.161499 513.789917,298.042694 514.799377,296.329987 
	C518.886719,289.395294 519.704956,281.920135 515.118225,274.679260 
	C509.126617,265.220490 494.264404,258.933167 483.011902,261.086456 
	C481.993439,261.281342 480.759552,261.966919 480.222595,262.806427 
	C475.886536,269.585419 474.260406,277.070343 476.971954,284.676453 
	C481.424561,297.166382 493.112366,302.557800 507.605591,299.013031 
M667.426758,206.483871 
	C667.426758,206.483871 667.522034,206.429886 667.426758,206.483871 
z"/>
<path fill="#051401" opacity="1.000000" stroke="none" 
	d="
M1.000002,670.428467 
	C7.285364,667.021484 13.420022,663.655334 19.886137,661.141846 
	C35.341919,655.133911 50.601219,655.828064 65.533684,663.327759 
	C71.678802,666.414001 77.957176,669.269470 84.322487,671.868591 
	C87.691498,673.244324 88.556816,674.346436 86.776260,678.066040 
	C84.005165,683.854858 82.707855,690.343994 79.988678,696.163818 
	C73.974136,709.036804 65.473038,720.391113 55.348183,730.182739 
	C51.023617,734.364990 44.573696,736.568359 38.804340,738.992004 
	C27.023102,743.941467 15.038386,748.388550 1.459098,747.999695 
	C1.000000,733.979126 1.000000,719.958191 1.401347,705.478638 
	C4.167613,705.036316 6.573294,705.328125 8.885154,704.985901 
	C10.907444,704.686646 12.958693,703.918579 14.759222,702.926025 
	C18.315077,700.965637 22.739162,699.439331 24.904886,696.386292 
	C27.625799,692.550476 30.661200,690.454346 34.684231,688.154419 
	C43.090965,683.348267 51.831432,682.541565 60.881931,683.194336 
	C64.820686,683.478455 68.689972,684.926941 70.635857,680.262268 
	C72.905487,674.821594 68.004036,673.488831 64.819778,671.556335 
	C58.594761,667.778320 53.956474,660.892273 45.519901,661.350891 
	C37.235962,661.801208 28.864779,660.620117 21.140396,665.722168 
	C14.890707,669.850281 7.747086,672.625000 1.000003,676.000000 
	C1.000000,674.285645 1.000000,672.571289 1.000002,670.428467 
z"/>
<path fill="#051701" opacity="1.000000" stroke="none" 
	d="
M386.539368,1.000001 
	C388.782867,4.900554 390.338898,8.925302 392.393097,12.677295 
	C397.598999,22.185934 397.855164,32.305847 396.245483,42.593376 
	C394.697479,52.486862 392.706665,62.310520 390.964752,72.174461 
	C390.167267,76.690590 388.477051,77.370178 384.038269,75.613022 
	C380.883545,74.364182 377.486115,73.537918 374.120575,73.044876 
	C359.339722,70.879486 345.209076,67.357727 334.417389,55.942326 
	C330.454620,51.750511 326.144867,47.870941 322.362152,43.527798 
	C313.126251,32.923637 314.251862,20.310785 315.909882,7.676514 
	C316.167511,5.713504 316.629913,3.777369 316.998779,1.414401 
	C327.020905,1.000000 337.041779,1.000000 347.571167,1.347450 
	C350.598694,5.173446 352.934662,8.808122 355.712830,12.065705 
	C357.134796,13.733105 359.178375,15.205659 361.235596,15.932915 
	C367.317719,18.083004 369.027008,20.144894 368.990875,26.744450 
	C368.949371,34.335175 370.460785,41.227470 376.787567,46.327980 
	C380.719208,49.497601 384.503174,49.822281 388.591766,46.924431 
	C393.699951,43.303955 396.626587,32.581154 394.206879,26.752741 
	C393.591949,25.271549 393.179962,23.638926 393.031250,22.042669 
	C392.293976,14.128028 388.874786,10.296534 381.258423,7.746756 
	C378.319031,6.762718 374.796631,5.349737 375.000000,1.000000 
	C378.692902,1.000000 382.385834,1.000000 386.539368,1.000001 
z"/>
<path fill="#323232" opacity="1.000000" stroke="none" 
	d="
M875.944458,292.990387 
	C875.967102,216.772797 875.991211,140.555206 876.011414,64.337608 
	C876.016968,43.535755 876.010498,22.733900 876.004761,1.466023 
	C877.333313,1.000000 878.666687,1.000000 880.000000,1.000000 
	C880.000000,295.166656 880.001953,589.333313 879.956726,883.500000 
	C879.956421,885.434326 881.462280,888.808167 876.500000,887.533142 
	C875.987671,882.041626 875.975281,877.017029 875.962952,871.992371 
	C875.967896,820.308167 875.972839,768.623901 875.980286,716.006165 
	C875.969177,688.381897 875.955505,661.691223 875.941895,635.000488 
	C875.958313,552.980103 875.974731,470.959747 875.989990,388.099670 
	C875.970093,386.509674 875.951355,385.759308 875.958984,384.540039 
	C875.967834,370.378021 875.950195,356.684967 875.954102,342.524231 
	C875.965332,325.701172 875.954895,309.345764 875.944458,292.990387 
z"/>
<path fill="#0E2401" opacity="1.000000" stroke="none" 
	d="
M241.468658,888.000000 
	C239.221649,874.506042 241.711182,861.376831 243.628128,848.084534 
	C244.475052,842.211853 241.777588,835.845398 240.825211,829.682007 
	C240.622879,828.372498 241.012253,826.971619 241.128998,825.612793 
	C242.521820,825.801758 244.106689,825.625671 245.275513,826.240540 
	C251.651779,829.594421 258.235504,832.686462 264.173035,836.715637 
	C278.426239,846.387695 291.551147,857.386108 298.238159,873.913269 
	C299.847229,877.890137 299.466614,882.672058 300.000519,887.541870 
	C280.645782,888.000000 261.291534,888.000000 241.468658,888.000000 
z"/>
<path fill="#091F02" opacity="1.000000" stroke="none" 
	d="
M1.000003,676.468628 
	C7.747086,672.625000 14.890707,669.850281 21.140396,665.722168 
	C28.864779,660.620117 37.235962,661.801208 45.519901,661.350891 
	C53.956474,660.892273 58.594761,667.778320 64.819778,671.556335 
	C68.004036,673.488831 72.905487,674.821594 70.635857,680.262268 
	C68.689972,684.926941 64.820686,683.478455 60.881931,683.194336 
	C51.831432,682.541565 43.090965,683.348267 34.684231,688.154419 
	C30.661200,690.454346 27.625799,692.550476 24.904886,696.386292 
	C22.739162,699.439331 18.315077,700.965637 14.759222,702.926025 
	C12.958693,703.918579 10.907444,704.686646 8.885154,704.985901 
	C6.573294,705.328125 4.167613,705.036316 1.401347,705.010010 
	C1.000000,695.645752 1.000000,686.291565 1.000003,676.468628 
z"/>
<path fill="#0D2101" opacity="1.000000" stroke="none" 
	d="
M43.531342,1.000000 
	C47.589748,9.073009 51.208290,17.133438 54.746120,25.229137 
	C55.496643,26.946581 55.952641,28.792732 56.544334,30.579584 
	C54.747059,30.739267 52.951141,30.916458 51.152283,31.055670 
	C42.273273,31.742805 33.324131,31.948217 24.534563,33.240593 
	C16.629250,34.402954 9.098892,34.484669 1.375725,31.046625 
	C1.000000,21.060320 1.000000,11.120639 1.000000,1.000000 
	C15.020376,1.000000 29.041529,1.000000 43.531342,1.000000 
z"/>
<path fill="#091F02" opacity="1.000000" stroke="none" 
	d="
M663.000000,888.000000 
	C661.933228,888.000000 660.866455,888.000000 659.398438,887.598267 
	C658.027649,880.442078 652.870911,875.805054 645.342346,875.026184 
	C642.939392,874.777588 639.589600,873.668091 638.273132,874.805054 
	C634.301208,878.235718 629.532959,881.619812 630.000000,888.000000 
	C628.933228,888.000000 627.866455,888.000000 626.399841,887.554443 
	C625.999573,876.713928 625.138428,875.542358 615.002380,872.528687 
	C612.949158,871.918213 610.856567,871.314453 608.739990,871.064209 
	C599.022339,869.915283 593.431580,864.294067 591.914734,854.682678 
	C591.448181,851.726135 590.494629,848.021301 588.409241,846.317810 
	C584.119568,842.814087 578.915894,840.429260 574.088318,837.583984 
	C573.391418,837.924194 572.694458,838.264404 571.997559,838.604553 
	C571.997559,845.403076 571.997559,852.201538 571.621399,858.910034 
	C567.893738,850.565918 568.278870,842.136719 570.438354,833.750305 
	C570.734619,832.599854 572.787476,831.734741 574.185913,831.073669 
	C576.366333,830.042847 578.695068,829.330322 580.938477,828.427002 
	C583.674622,827.325256 586.291626,825.700256 589.127991,825.116028 
	C598.646973,823.155212 608.354492,823.544067 617.502380,826.320984 
	C624.655212,828.492188 631.190369,832.698120 637.607117,835.999329 
	C635.186646,835.353333 633.115845,834.817810 631.139771,834.041443 
	C625.946167,832.000793 620.937378,828.685608 615.590881,828.029358 
	C607.829163,827.076660 599.816589,827.759216 591.955750,828.344849 
	C590.253662,828.471619 587.225159,831.453003 587.454163,832.583374 
	C587.945435,835.008606 589.714111,838.320374 591.760315,839.062805 
	C597.119812,841.007324 602.856384,842.321533 608.540039,842.860718 
	C615.732300,843.542847 622.044983,847.939026 624.145447,854.735413 
	C625.760925,859.962402 627.673401,865.097595 629.558411,870.577515 
	C632.726318,870.219971 636.674377,869.153687 640.504883,869.477295 
	C647.481506,870.066772 654.794678,872.970398 659.065674,864.256226 
	C659.159729,864.064270 659.679077,864.080750 660.000000,864.445496 
	C660.050964,867.217346 659.172485,870.272400 660.321350,871.738159 
	C664.321167,876.840698 662.561890,882.533142 663.000000,888.000000 
M603.884705,861.787109 
	C605.772644,867.171753 610.434814,865.704590 614.387451,866.088074 
	C618.735291,866.509827 621.961182,863.486755 620.592163,859.567444 
	C618.391235,853.266052 614.774597,847.669067 607.602539,846.570435 
	C604.950378,846.164185 601.174683,847.214294 599.296509,849.031677 
	C596.586121,851.654602 597.958862,855.181763 600.422485,857.901367 
	C601.422607,859.005310 602.468262,860.068176 603.884705,861.787109 
z"/>
<path fill="#0D2101" opacity="1.000000" stroke="none" 
	d="
M571.997559,859.000000 
	C571.997559,852.201538 571.997559,845.403076 571.997559,838.604553 
	C572.694458,838.264404 573.391418,837.924194 574.088318,837.583984 
	C578.915894,840.429260 584.119568,842.814087 588.409241,846.317810 
	C590.494629,848.021301 591.448181,851.726135 591.914734,854.682678 
	C593.431580,864.294067 599.022339,869.915283 608.739990,871.064209 
	C610.856567,871.314453 612.949158,871.918213 615.002380,872.528687 
	C625.138428,875.542358 625.999573,876.713928 626.000000,887.554443 
	C611.979126,888.000000 597.958191,888.000000 583.425049,887.633240 
	C581.743774,884.740112 580.543945,882.227356 579.411560,879.684631 
	C576.423828,872.976074 571.341614,867.014954 571.997559,859.000000 
z"/>
<path fill="#0D2101" opacity="1.000000" stroke="none" 
	d="
M875.619385,871.956177 
	C875.975281,877.017029 875.987671,882.041626 876.000000,887.533142 
	C861.645752,888.000000 847.291565,888.000000 832.468628,888.000000 
	C829.816956,878.218384 827.633972,868.436768 825.330261,858.114563 
	C841.978088,861.155457 860.744080,858.319763 875.619385,871.956177 
z"/>
<path fill="#091F02" opacity="1.000000" stroke="none" 
	d="
M374.531342,1.000000 
	C374.796631,5.349737 378.319031,6.762718 381.258423,7.746756 
	C388.874786,10.296534 392.293976,14.128028 393.031250,22.042669 
	C393.179962,23.638926 393.591949,25.271549 394.206879,26.752741 
	C396.626587,32.581154 393.699951,43.303955 388.591766,46.924431 
	C384.503174,49.822281 380.719208,49.497601 376.787567,46.327980 
	C370.460785,41.227470 368.949371,34.335175 368.990875,26.744450 
	C369.027008,20.144894 367.317719,18.083004 361.235596,15.932915 
	C359.178375,15.205659 357.134796,13.733105 355.712830,12.065705 
	C352.934662,8.808122 350.598694,5.173446 348.039795,1.347450 
	C356.687561,1.000000 365.375122,1.000000 374.531342,1.000000 
z"/>
<path fill="#021801" opacity="1.000000" stroke="none" 
	d="
M26.997944,149.997284 
	C23.110046,157.304855 16.259092,161.251495 9.469976,165.165009 
	C7.143293,166.506210 4.372302,167.076645 1.402152,167.999603 
	C1.000000,147.645767 1.000000,127.291542 1.000000,106.468658 
	C7.563729,106.704315 14.120944,107.479958 20.694176,108.080208 
	C23.597561,108.345329 26.557817,108.516418 29.447237,108.247147 
	C31.998226,108.009415 33.773911,108.216896 33.626823,111.616501 
	C30.307219,115.389252 27.049110,118.550735 24.447689,122.182594 
	C19.966753,128.438431 15.079434,134.516312 13.894974,142.589386 
	C13.581693,144.724655 11.943677,146.660950 10.939376,148.701126 
	C10.318657,149.962097 9.243955,151.284088 9.335107,152.506989 
	C9.392139,153.272125 11.190002,154.380173 12.290540,154.489304 
	C14.162055,154.674911 16.215422,154.529556 17.983889,153.919189 
	C21.071939,152.853439 24.001793,151.329315 26.997944,149.997284 
z"/>
<path fill="#051401" opacity="1.000000" stroke="none" 
	d="
M571.621399,858.910034 
	C571.341614,867.014954 576.423828,872.976074 579.411560,879.684631 
	C580.543945,882.227356 581.743774,884.740112 582.956421,887.633240 
	C581.933289,888.000000 580.866638,888.000000 579.399963,888.000000 
	C577.527832,884.745789 576.121765,881.459717 574.571167,878.243286 
	C569.674683,868.086365 567.804810,857.270996 566.888062,846.122192 
	C566.319946,839.213257 564.735840,832.387817 563.473022,824.704895 
	C563.554688,824.685486 564.853638,824.184692 566.180969,824.092407 
	C575.282776,823.459656 584.394836,822.972107 593.495422,822.323914 
	C607.440247,821.330566 620.943726,822.573608 633.570251,829.293091 
	C641.576599,833.553955 648.793091,838.659119 653.959473,846.657776 
	C653.994568,847.004944 653.985352,847.013062 653.639893,846.969604 
	C648.196350,843.284119 643.098145,839.642090 638.000000,836.000000 
	C631.190369,832.698120 624.655212,828.492188 617.502380,826.320984 
	C608.354492,823.544067 598.646973,823.155212 589.127991,825.116028 
	C586.291626,825.700256 583.674622,827.325256 580.938477,828.427002 
	C578.695068,829.330322 576.366333,830.042847 574.185913,831.073669 
	C572.787476,831.734741 570.734619,832.599854 570.438354,833.750305 
	C568.278870,842.136719 567.893738,850.565918 571.621399,858.910034 
z"/>
<path fill="#051701" opacity="1.000000" stroke="none" 
	d="
M630.468628,888.000000 
	C629.532959,881.619812 634.301208,878.235718 638.273132,874.805054 
	C639.589600,873.668091 642.939392,874.777588 645.342346,875.026184 
	C652.870911,875.805054 658.027649,880.442078 658.998596,887.598267 
	C649.645752,888.000000 640.291565,888.000000 630.468628,888.000000 
z"/>
<path fill="#051401" opacity="1.000000" stroke="none" 
	d="
M653.998535,847.001221 
	C656.014343,849.034302 658.757324,850.725464 659.911804,853.167542 
	C665.004211,863.939697 669.883911,874.856445 669.999329,887.569031 
	C669.555542,888.000000 669.111084,888.000000 668.333313,887.568970 
	C665.666687,878.758606 663.333374,870.379333 660.966919,861.675354 
	C660.289246,860.233826 659.644653,859.116882 658.993530,857.626343 
	C657.659668,855.167969 656.332275,853.083252 654.862793,850.680420 
	C654.475586,849.245911 654.230469,848.129456 653.985352,847.013062 
	C653.985352,847.013062 653.994568,847.004944 653.998535,847.001221 
z"/>
<path fill="#051701" opacity="1.000000" stroke="none" 
	d="
M661.000000,862.000000 
	C663.333374,870.379333 665.666687,878.758606 668.000000,887.568970 
	C666.611084,888.000000 665.222229,888.000000 663.416626,888.000000 
	C662.561890,882.533142 664.321167,876.840698 660.321350,871.738159 
	C659.172485,870.272400 660.050964,867.217346 660.024780,864.150085 
	C660.366394,862.939453 660.683228,862.469727 661.000000,862.000000 
z"/>
<path fill="#F4F3F4" opacity="1.000000" stroke="none" 
	d="
M711.118225,488.873962 
	C711.122070,484.762604 711.122070,481.124756 711.122070,476.780945 
	C709.891357,477.644470 709.011292,478.014374 708.483276,478.668518 
	C693.942017,496.684875 674.850281,499.911499 653.900574,494.238586 
	C633.490967,488.711945 621.154541,474.096069 615.610657,454.275452 
	C611.092529,438.121979 611.347778,421.548218 616.898438,405.512817 
	C628.297363,372.582306 661.628296,362.132812 690.105103,371.375671 
	C698.114929,373.975464 704.155640,379.520996 708.441162,386.851593 
	C709.427856,388.539398 710.484497,390.186310 712.793823,391.680389 
	C712.928772,389.340363 713.055725,386.999817 713.200195,384.660370 
	C713.871399,373.794525 719.758057,368.726624 731.439087,368.952179 
	C741.701660,369.150360 747.572937,374.775146 747.587646,385.215271 
	C747.637329,420.376007 747.919556,455.545197 747.271912,490.695648 
	C746.656677,524.088074 727.063354,545.920410 694.043823,550.979797 
	C673.766052,554.086792 653.817810,552.152039 634.493896,545.067749 
	C627.738403,542.591125 622.421021,538.593689 621.660339,530.657104 
	C621.147400,525.305664 621.694031,520.181274 626.146484,516.534973 
	C630.788330,512.733521 635.997314,512.971130 641.189209,515.420166 
	C654.177246,521.546692 667.794556,523.859070 682.054321,522.208801 
	C701.116943,520.002808 710.697693,509.131927 711.118225,488.873962 
M707.760132,453.119232 
	C712.850403,444.714844 713.602905,435.535034 712.418274,426.076416 
	C710.292236,409.100952 697.628174,398.440277 679.987427,398.640228 
	C661.944885,398.844666 650.927795,408.799011 649.243408,426.703766 
	C648.871643,430.655579 648.941284,434.720398 649.394775,438.665680 
	C651.066833,453.212128 658.438843,462.189789 671.047424,465.484375 
	C686.590576,469.545746 698.408264,465.720703 707.760132,453.119232 
z"/>
<path fill="#F5F4F5" opacity="1.000000" stroke="none" 
	d="
M506.991302,316.907135 
	C511.043579,316.826202 514.760620,316.358582 518.313965,316.922455 
	C525.490234,318.061188 530.617249,321.877350 533.619385,328.920319 
	C551.109680,369.952148 568.805847,410.896240 586.444031,451.864990 
	C590.721558,461.800598 595.180115,471.660645 599.305115,481.658691 
	C603.386108,491.550140 600.924072,498.876129 592.614441,502.697906 
	C582.174683,507.499359 570.866333,504.600159 566.658508,495.578156 
	C562.651184,486.986053 559.141052,478.156708 555.593506,469.358643 
	C554.432068,466.478180 552.859375,465.439392 549.629639,465.469788 
	C524.982178,465.701782 500.332123,465.797852 475.684265,465.669861 
	C472.179901,465.651672 470.697510,466.702576 469.661530,469.906219 
	C467.204468,477.504425 464.594696,485.067871 461.667328,492.495850 
	C457.281738,503.623779 444.765594,508.059174 433.977112,502.577057 
	C427.394623,499.232208 424.340149,491.180817 427.422668,483.156219 
	C431.538788,472.441071 436.284851,461.968475 440.732666,451.380096 
	C457.173004,412.242310 473.640472,373.115845 490.002869,333.945526 
	C493.315247,326.015961 497.043396,318.722168 506.991302,316.907135 
M501.507324,432.743103 
	C514.206116,432.743103 526.904968,432.743103 540.395325,432.743103 
	C530.915405,408.950958 521.750732,385.949921 512.155090,361.867462 
	C503.237549,386.154541 494.769531,409.217224 486.131104,432.744110 
	C491.583618,432.744110 496.047638,432.744110 501.507324,432.743103 
z"/>
<path fill="#F5F4F5" opacity="1.000000" stroke="none" 
	d="
M120.480682,339.880920 
	C120.079605,337.926575 119.573387,335.987030 119.296211,334.015289 
	C118.256752,326.620819 123.042007,319.592346 130.269638,317.786865 
	C143.211121,314.554016 152.005859,319.251129 156.656982,331.545776 
	C171.502197,370.787292 186.438324,409.994476 201.362610,449.206024 
	C201.805893,450.370667 202.508087,451.436707 203.594849,453.514984 
	C205.653915,447.532776 207.223663,442.501953 209.102982,437.589569 
	C220.111343,408.814453 231.213257,380.075165 242.233215,351.304443 
	C244.913223,344.307556 247.378769,337.228790 249.987473,330.204224 
	C254.359161,318.432312 265.913696,313.431854 277.565643,318.235657 
	C284.006348,320.890991 287.675812,328.178558 285.545502,336.252197 
	C283.557526,343.786469 280.729034,351.132721 277.836212,358.388641 
	C264.951355,390.707245 251.910782,422.963776 238.660019,455.836548 
	C234.590698,465.618652 230.787842,474.806915 226.984985,483.995209 
	C226.120407,485.946045 225.169235,487.863678 224.405716,489.853302 
	C220.472794,500.101929 214.914658,504.084991 204.112122,504.312805 
	C193.568298,504.535187 188.337631,501.061096 183.954575,490.599823 
	C175.724701,470.957092 167.613312,451.264771 159.405151,431.612885 
	C151.325424,412.268494 143.203293,392.941742 135.040787,373.632172 
	C134.427887,372.182312 133.342056,370.932373 132.426727,368.922607 
	C130.693832,364.465240 129.010300,360.674805 127.307007,356.505371 
	C125.018387,350.711273 122.749535,345.296082 120.480682,339.880920 
z"/>
<path fill="#F4F3F4" opacity="1.000000" stroke="none" 
	d="
M411.224701,480.495056 
	C410.855316,485.524017 408.809692,489.301697 404.882202,491.690643 
	C378.636353,507.654999 336.242126,511.817535 309.378662,483.716248 
	C304.772949,478.898315 300.904816,472.846527 298.369659,466.677002 
	C290.719330,448.059753 289.137146,428.425964 295.690521,409.472076 
	C304.256287,384.698029 323.355560,371.881287 349.102539,369.164948 
	C388.524445,365.005829 419.250824,396.112335 415.000793,435.555725 
	C414.233704,442.675079 410.736908,445.901855 403.547638,445.907867 
	C379.224243,445.928192 354.900787,445.900116 330.577362,445.890564 
	C329.760651,445.890259 328.943970,445.890503 328.143066,445.890503 
	C327.485687,456.133728 336.980286,468.743042 347.823669,472.822235 
	C359.171783,477.091309 370.152863,474.794830 381.096710,471.450562 
	C384.745331,470.335602 388.281403,468.800720 391.780243,467.256805 
	C403.855286,461.928589 411.160828,466.715271 411.224701,480.495056 
M368.492981,425.549316 
	C373.260101,425.549316 378.027222,425.549316 383.114990,425.549316 
	C383.126801,415.053345 381.199432,406.030609 371.921600,400.485107 
	C361.646271,394.343445 350.940033,394.276306 340.607056,400.054443 
	C330.950775,405.454163 328.221924,414.889038 327.144135,425.545837 
	C340.977173,425.545837 354.236145,425.545837 368.492981,425.549316 
z"/>
<path fill="#021801" opacity="1.000000" stroke="none" 
	d="
M212.013199,162.982269 
	C208.697235,163.310623 205.360840,163.501907 202.069183,163.993179 
	C192.440231,165.430267 183.203003,170.380463 172.999039,166.270645 
	C166.645157,163.711548 159.374588,163.026749 153.510010,159.730988 
	C137.026184,150.467499 126.194023,136.477463 124.194458,117.267090 
	C123.139236,107.129227 123.958122,96.789963 124.095306,86.543831 
	C124.109428,85.488960 125.161629,83.603836 125.881828,83.528145 
	C138.331482,82.219643 150.785400,80.786575 163.277939,80.097252 
	C176.165390,79.386124 186.545975,85.624031 196.016220,93.598373 
	C204.970398,101.138153 210.273453,110.727371 212.292160,122.282227 
	C213.752579,130.641479 213.498352,138.951279 210.695328,146.817276 
	C209.316345,150.687088 209.500366,153.788986 210.963318,157.977814 
	C211.345825,160.140915 211.679504,161.561600 212.013199,162.982269 
z"/>
<path fill="#041601" opacity="1.000000" stroke="none" 
	d="
M843.019897,80.959793 
	C832.259644,101.905327 815.683533,114.341576 792.911621,119.210861 
	C782.939697,121.343132 773.188293,121.632294 763.337891,119.920616 
	C757.504883,118.907036 751.833801,116.975189 746.074524,115.516930 
	C743.695984,114.914665 741.292419,114.378899 738.872803,113.979256 
	C735.824463,113.475769 733.630615,111.396645 735.372253,108.909134 
	C740.982056,100.896568 739.660950,91.398094 741.928650,82.708427 
	C747.104431,62.875259 756.966797,45.697170 773.935547,33.927601 
	C792.505920,21.047184 812.937134,18.201725 834.446716,26.676146 
	C837.414856,27.845547 840.682739,28.253864 844.153259,29.097523 
	C846.986023,40.332508 850.852295,52.279636 848.798645,64.759201 
	C847.902222,70.206970 845.108704,75.342567 843.019897,80.959793 
M842.389099,45.068806 
	C838.456543,47.620068 834.009827,49.641262 830.708496,52.843277 
	C825.378906,58.012615 820.705566,63.877861 815.933899,69.598305 
	C809.943909,76.779442 799.165955,78.218674 794.792908,87.343987 
	C794.556213,87.837936 793.234863,87.727737 792.512878,88.087959 
	C789.168030,89.756882 785.317444,90.901634 782.651245,93.333893 
	C777.859497,97.705307 773.785706,102.863770 769.295654,107.821861 
	C769.386230,107.972740 769.541565,108.627945 769.894592,108.761795 
	C779.151550,112.271523 788.752258,112.221687 798.381287,111.185486 
	C800.086975,111.001930 801.668640,109.650635 803.303833,108.831284 
	C804.774048,108.094620 806.184265,107.200218 807.715881,106.630501 
	C815.436096,103.758690 820.876282,98.583260 825.032532,91.437149 
	C826.812744,88.376228 830.585510,86.486717 833.412354,84.018410 
	C836.201965,81.582611 839.371277,79.424995 841.615967,76.552849 
	C847.184204,69.428123 847.377502,60.814819 846.806458,52.336456 
	C846.641724,49.891682 844.424622,47.585171 842.389099,45.068806 
z"/>
<path fill="#051401" opacity="1.000000" stroke="none" 
	d="
M875.538330,292.994202 
	C875.954895,309.345764 875.965332,325.701172 875.557617,342.527039 
	C867.034485,342.102478 861.955872,346.005951 857.980713,352.804657 
	C851.466858,363.945312 842.564270,372.568359 829.599060,375.840454 
	C826.498718,376.622925 825.110596,378.006775 824.939758,381.206329 
	C824.763245,384.512695 826.367310,385.965759 829.217346,386.957489 
	C839.884399,390.669159 850.453857,391.266174 861.348572,387.512573 
	C865.951111,385.926880 871.056030,385.799316 875.932556,385.008972 
	C875.951355,385.759308 875.970093,386.509674 875.964600,387.634949 
	C870.346863,389.193817 864.596924,389.900452 859.195312,391.670349 
	C850.463684,394.531311 841.774536,394.041321 833.057800,392.431580 
	C824.497131,390.850677 816.065063,388.557007 807.490723,387.071625 
	C801.778442,386.082031 800.364563,385.149139 802.014587,379.528442 
	C805.034485,369.241364 808.604004,359.113251 812.049133,348.954376 
	C813.796326,343.802338 815.874939,338.762726 817.623962,333.611267 
	C822.064392,320.532501 832.662598,313.321075 843.684570,306.822418 
	C851.457153,302.239594 859.792542,298.590210 867.984375,294.753998 
	C870.163269,293.733612 872.738770,293.560272 875.538330,292.994202 
z"/>
<path fill="#021801" opacity="1.000000" stroke="none" 
	d="
M106.267838,649.435303 
	C112.560295,637.018982 121.562485,628.816467 135.512527,626.951416 
	C138.746780,626.519043 141.880112,625.334229 145.061203,624.500671 
	C147.080536,623.971497 149.102280,623.451660 151.575394,622.810303 
	C151.182083,634.123169 158.673584,643.122437 157.171234,654.295105 
	C155.138260,669.413940 143.370697,688.154541 124.185486,687.009705 
	C123.189293,686.950317 122.182365,686.950073 121.187157,687.019104 
	C118.749725,687.188110 115.375061,688.510803 114.072731,687.393433 
	C111.163475,684.897461 108.561913,681.487427 107.134071,677.928589 
	C103.468735,668.792786 102.315231,659.315674 106.267838,649.435303 
z"/>
<path fill="#021801" opacity="1.000000" stroke="none" 
	d="
M697.029602,199.319946 
	C691.337891,200.359802 685.970764,201.187820 680.600098,201.992294 
	C677.007385,202.530457 673.409546,203.035156 670.111877,203.511780 
	C669.071045,201.152527 668.124573,197.743835 666.244507,194.967255 
	C658.686523,183.805130 661.592468,174.172577 668.589233,165.144730 
	C676.191589,155.335449 686.479004,150.176422 699.339966,150.938873 
	C704.946899,151.271271 710.589966,150.994720 716.587830,150.994720 
	C717.775024,163.297318 720.531433,176.018524 712.222839,187.802887 
	C708.363403,193.276917 702.804321,195.994354 697.029602,199.319946 
z"/>
<path fill="#021801" opacity="1.000000" stroke="none" 
	d="
M875.556763,635.055908 
	C875.955505,661.691223 875.969177,688.381897 875.951294,715.541626 
	C868.099670,714.465881 863.038513,708.990051 858.210938,703.332581 
	C843.241882,685.790161 844.189758,665.365112 848.105103,644.585876 
	C848.436768,642.825684 851.066650,640.718750 853.016663,640.182251 
	C860.314209,638.174377 867.773132,636.752747 875.556763,635.055908 
z"/>
<path fill="#021801" opacity="1.000000" stroke="none" 
	d="
M406.004700,742.098145 
	C407.298828,749.835449 406.035248,756.961243 401.719116,762.741394 
	C400.041199,764.988464 395.368073,765.453430 391.953735,765.875244 
	C370.543549,768.519836 356.145020,749.407043 364.290802,729.361328 
	C364.727692,728.286133 365.210571,727.202026 365.439209,726.074829 
	C366.322601,721.719116 366.973541,718.339355 373.105865,721.537354 
	C376.203796,723.152893 380.992706,721.153687 384.641052,722.156677 
	C394.917725,724.981812 402.474060,731.250061 406.004700,742.098145 
z"/>
<path fill="#021801" opacity="1.000000" stroke="none" 
	d="
M730.992310,749.713501 
	C729.521057,754.309692 728.052612,758.468933 726.941162,761.617065 
	C720.542175,761.393433 714.731934,761.732422 709.109375,760.860901 
	C701.547729,759.688965 695.056030,756.221863 691.154480,749.091064 
	C686.413818,740.426331 686.972473,731.998047 692.185181,723.770203 
	C692.595032,723.123230 693.421143,722.257141 694.016602,722.285034 
	C700.333496,722.580994 706.963684,721.942383 712.887634,723.677551 
	C725.226562,727.291870 730.958801,736.244202 730.992310,749.713501 
z"/>
<path fill="#021801" opacity="1.000000" stroke="none" 
	d="
M507.156433,299.038605 
	C493.112366,302.557800 481.424561,297.166382 476.971954,284.676453 
	C474.260406,277.070343 475.886536,269.585419 480.222595,262.806427 
	C480.759552,261.966919 481.993439,261.281342 483.011902,261.086456 
	C494.264404,258.933167 509.126617,265.220490 515.118225,274.679260 
	C519.704956,281.920135 518.886719,289.395294 514.799377,296.329987 
	C513.789917,298.042694 510.076172,298.161499 507.156433,299.038605 
z"/>
<path fill="#142E02" opacity="1.000000" stroke="none" 
	d="
M528.020081,94.040253 
	C514.467102,94.408463 506.182465,85.645790 498.417511,76.460846 
	C494.738800,72.109428 492.091858,66.885773 488.695679,61.620441 
	C492.788788,62.523560 496.300751,64.264320 499.513489,63.823582 
	C508.618286,62.574528 517.637207,60.596954 526.619934,58.592365 
	C534.095093,56.924179 540.882019,58.375648 546.946594,62.683315 
	C551.771362,66.110352 554.791992,70.793655 553.564209,77.575829 
	C547.419373,78.000893 541.715820,77.993858 535.956909,77.616783 
	C534.430481,76.600708 532.919434,75.325340 531.494812,75.415474 
	C524.617188,75.850609 518.202698,74.917801 511.921844,71.732864 
	C507.895508,69.691139 503.254730,68.861008 498.889404,67.487762 
	C502.029114,75.033844 514.570923,85.079124 520.618469,87.176323 
	C523.900574,88.314507 527.871399,89.274773 528.020081,94.040253 
z"/>
<path fill="#0D2101" opacity="1.000000" stroke="none" 
	d="
M570.983032,634.030579 
	C575.707886,632.978210 580.432739,631.925903 585.945862,630.697998 
	C584.219849,634.571350 582.859436,638.705444 580.655212,642.325562 
	C577.060791,648.228760 573.065369,653.906799 568.963745,659.477112 
	C564.166565,665.992065 547.152954,670.007507 540.096008,665.046875 
	C536.999695,662.870361 534.721985,659.529358 532.241455,656.089539 
	C535.483093,653.998535 538.468811,652.301880 541.645508,651.117432 
	C549.720764,648.106262 558.085815,645.769287 565.887268,642.187683 
	C568.321106,641.070251 569.324707,636.837341 570.983032,634.030579 
z"/>
<path fill="#041601" opacity="1.000000" stroke="none" 
	d="
M227.291809,484.135376 
	C230.787842,474.806915 234.590698,465.618652 238.659546,456.204285 
	C240.160202,456.817688 241.394897,457.657196 242.815475,459.180298 
	C242.371552,464.519745 244.117981,468.080414 247.589127,471.203613 
	C250.254761,473.602112 252.274185,476.707397 254.865005,479.203522 
	C257.745300,481.978516 260.947632,484.419281 264.009735,487.005585 
	C262.842651,493.487762 260.009247,495.637634 253.840469,496.073334 
	C243.860092,496.778229 235.603790,494.050049 229.623016,485.666321 
	C229.176270,485.040039 228.283875,484.731689 227.291809,484.135376 
z"/>
<path fill="#142E02" opacity="1.000000" stroke="none" 
	d="
M570.556763,634.021729 
	C569.324707,636.837341 568.321106,641.070251 565.887268,642.187683 
	C558.085815,645.769287 549.720764,648.106262 541.645508,651.117432 
	C538.468811,652.301880 535.483093,653.998535 532.200317,655.742920 
	C526.804504,654.290894 528.759460,650.407288 529.899414,647.464172 
	C534.610779,635.300720 545.894897,629.677124 559.399048,632.298584 
	C562.953247,632.988464 566.552185,633.447693 570.556763,634.021729 
z"/>
<path fill="#091F02" opacity="1.000000" stroke="none" 
	d="
M27.270264,149.787186 
	C24.001793,151.329315 21.071939,152.853439 17.983889,153.919189 
	C16.215422,154.529556 14.162055,154.674911 12.290540,154.489304 
	C11.190002,154.380173 9.392139,153.272125 9.335107,152.506989 
	C9.243955,151.284088 10.318657,149.962097 10.939376,148.701126 
	C11.943677,146.660950 13.581693,144.724655 13.894974,142.589386 
	C15.079434,134.516312 19.966753,128.438431 24.447689,122.182594 
	C27.049110,118.550735 30.307219,115.389252 33.633335,112.006981 
	C33.996502,118.485115 34.835400,125.115791 33.758282,131.419037 
	C32.694534,137.643997 29.693659,143.537933 27.270264,149.787186 
z"/>
<path fill="#091F02" opacity="1.000000" stroke="none" 
	d="
M120.073181,339.934326 
	C122.749535,345.296082 125.018387,350.711273 126.942795,356.577393 
	C123.756325,359.303375 121.108727,361.908936 118.003006,363.735657 
	C115.978210,364.926605 113.118507,364.619080 110.930801,365.628571 
	C106.448029,367.697174 103.779839,366.161682 102.007233,361.999725 
	C103.499237,355.296692 105.862381,348.925446 111.217842,344.385101 
	C113.579193,342.383118 116.822678,341.421631 120.073181,339.934326 
z"/>
<path fill="#091F02" opacity="1.000000" stroke="none" 
	d="
M252.063293,272.082062 
	C250.580917,272.699585 249.016098,273.982452 247.631531,273.810852 
	C243.347931,273.279999 239.125183,266.151276 239.506256,261.757355 
	C240.074112,255.209747 243.821701,250.474869 247.763138,245.815750 
	C250.078995,243.078201 252.731735,240.625626 255.647644,238.381195 
	C258.379059,244.795792 258.781982,250.858902 255.892273,256.885590 
	C254.205322,260.403839 252.250168,263.823212 250.937408,267.474609 
	C250.491409,268.715149 251.642181,270.529785 252.063293,272.082062 
z"/>
<path fill="#051401" opacity="1.000000" stroke="none" 
	d="
M101.760468,362.239838 
	C103.779839,366.161682 106.448029,367.697174 110.930801,365.628571 
	C113.118507,364.619080 115.978210,364.926605 118.003006,363.735657 
	C121.108727,361.908936 123.756325,359.303375 126.962563,356.956360 
	C129.010300,360.674805 130.693832,364.465240 132.232483,368.625549 
	C130.930328,370.616608 129.780670,372.243286 128.614441,373.858002 
	C123.675896,380.695892 116.471764,377.891388 110.204056,377.679077 
	C104.688599,377.492249 102.893349,372.708923 102.148232,367.821075 
	C101.878189,366.049622 101.721901,364.260834 101.760468,362.239838 
z"/>
<path fill="#0D2101" opacity="1.000000" stroke="none" 
	d="
M528.368774,94.190964 
	C527.871399,89.274773 523.900574,88.314507 520.618469,87.176323 
	C514.570923,85.079124 502.029114,75.033844 498.889404,67.487762 
	C503.254730,68.861008 507.895508,69.691139 511.921844,71.732864 
	C518.202698,74.917801 524.617188,75.850609 531.494812,75.415474 
	C532.919434,75.325340 534.430481,76.600708 535.527100,77.622208 
	C532.897278,78.313705 530.604370,78.474533 528.402466,79.010048 
	C527.270569,79.285347 525.445740,80.223099 525.441467,80.871384 
	C525.433289,82.111984 526.185974,83.806801 527.187439,84.515129 
	C529.572083,86.201797 532.428345,87.222244 534.810852,88.911324 
	C536.165894,89.871979 536.963562,91.618904 538.012207,93.011749 
	C534.913940,93.455055 531.815674,93.898361 528.368774,94.190964 
z"/>
<path fill="#142E02" opacity="1.000000" stroke="none" 
	d="
M252.446823,272.064545 
	C251.642181,270.529785 250.491409,268.715149 250.937408,267.474609 
	C252.250168,263.823212 254.205322,260.403839 255.892273,256.885590 
	C258.781982,250.858902 258.379059,244.795792 255.985306,238.320175 
	C256.136688,235.741104 256.365143,233.559357 256.647675,230.860931 
	C269.490967,241.037476 269.808533,263.099915 257.926117,270.371002 
	C256.441559,271.279419 254.539154,271.505035 252.446823,272.064545 
z"/>
<path fill="#091F02" opacity="1.000000" stroke="none" 
	d="
M264.288635,486.708862 
	C260.947632,484.419281 257.745300,481.978516 254.865005,479.203522 
	C252.274185,476.707397 250.254761,473.602112 247.589127,471.203613 
	C244.117981,468.080414 242.371552,464.519745 243.001282,459.438080 
	C258.043152,461.381866 266.539825,472.176880 264.288635,486.708862 
z"/>
<path fill="#041601" opacity="1.000000" stroke="none" 
	d="
M538.391357,93.002640 
	C536.963562,91.618904 536.165894,89.871979 534.810852,88.911324 
	C532.428345,87.222244 529.572083,86.201797 527.187439,84.515129 
	C526.185974,83.806801 525.433289,82.111984 525.441467,80.871384 
	C525.445740,80.223099 527.270569,79.285347 528.402466,79.010048 
	C530.604370,78.474533 532.897278,78.313705 535.582397,77.992249 
	C541.715820,77.993858 547.419373,78.000893 553.559082,78.005264 
	C551.792908,85.916954 546.540039,90.733139 538.391357,93.002640 
z"/>
<path fill="#0D2101" opacity="1.000000" stroke="none" 
	d="
M212.275604,163.186432 
	C211.679504,161.561600 211.345825,160.140915 211.008560,158.349915 
	C217.916534,163.915421 222.973114,171.931137 221.894119,176.135620 
	C218.619797,171.675293 215.578903,167.532959 212.275604,163.186432 
z"/>
<path fill="#021801" opacity="1.000000" stroke="none" 
	d="
M667.474365,206.456879 
	C667.522034,206.429886 667.426758,206.483871 667.474365,206.456879 
z"/>
<path fill="#091F02" opacity="1.000000" stroke="none" 
	d="
M875.958984,384.540039 
	C871.056030,385.799316 865.951111,385.926880 861.348572,387.512573 
	C850.453857,391.266174 839.884399,390.669159 829.217346,386.957489 
	C826.367310,385.965759 824.763245,384.512695 824.939758,381.206329 
	C825.110596,378.006775 826.498718,376.622925 829.599060,375.840454 
	C842.564270,372.568359 851.466858,363.945312 857.980713,352.804657 
	C861.955872,346.005951 867.034485,342.102478 875.535950,342.994720 
	C875.950195,356.684967 875.967834,370.378021 875.958984,384.540039 
z"/>
<path fill="#0D2101" opacity="1.000000" stroke="none" 
	d="
M660.966919,861.675354 
	C660.683228,862.469727 660.366394,862.939453 660.024780,863.704529 
	C659.679077,864.080750 659.159729,864.064270 659.065674,864.256226 
	C654.794678,872.970398 647.481506,870.066772 640.504883,869.477295 
	C636.674377,869.153687 632.726318,870.219971 629.558411,870.577515 
	C627.673401,865.097595 625.760925,859.962402 624.145447,854.735413 
	C622.044983,847.939026 615.732300,843.542847 608.540039,842.860718 
	C602.856384,842.321533 597.119812,841.007324 591.760315,839.062805 
	C589.714111,838.320374 587.945435,835.008606 587.454163,832.583374 
	C587.225159,831.453003 590.253662,828.471619 591.955750,828.344849 
	C599.816589,827.759216 607.829163,827.076660 615.590881,828.029358 
	C620.937378,828.685608 625.946167,832.000793 631.139771,834.041443 
	C633.115845,834.817810 635.186646,835.353333 637.607117,835.999329 
	C643.098145,839.642090 648.196350,843.284119 653.639893,846.969604 
	C654.230469,848.129456 654.475586,849.245911 654.903564,851.042236 
	C656.390991,853.814758 657.695496,855.907349 659.000000,858.000000 
	C659.644653,859.116882 660.289246,860.233826 660.966919,861.675354 
z"/>
<path fill="#051701" opacity="1.000000" stroke="none" 
	d="
M603.688965,861.468384 
	C602.468262,860.068176 601.422607,859.005310 600.422485,857.901367 
	C597.958862,855.181763 596.586121,851.654602 599.296509,849.031677 
	C601.174683,847.214294 604.950378,846.164185 607.602539,846.570435 
	C614.774597,847.669067 618.391235,853.266052 620.592163,859.567444 
	C621.961182,863.486755 618.735291,866.509827 614.387451,866.088074 
	C610.434814,865.704590 605.772644,867.171753 603.688965,861.468384 
z"/>
<path fill="#051701" opacity="1.000000" stroke="none" 
	d="
M658.993530,857.626343 
	C657.695496,855.907349 656.390991,853.814758 655.045654,851.360352 
	C656.332275,853.083252 657.659668,855.167969 658.993530,857.626343 
z"/>
<path fill="#060606" opacity="1.000000" stroke="none" 
	d="
M707.557495,453.426086 
	C698.408264,465.720703 686.590576,469.545746 671.047424,465.484375 
	C658.438843,462.189789 651.066833,453.212128 649.394775,438.665680 
	C648.941284,434.720398 648.871643,430.655579 649.243408,426.703766 
	C650.927795,408.799011 661.944885,398.844666 679.987427,398.640228 
	C697.628174,398.440277 710.292236,409.100952 712.418274,426.076416 
	C713.602905,435.535034 712.850403,444.714844 707.557495,453.426086 
z"/>
<path fill="#0A0A0A" opacity="1.000000" stroke="none" 
	d="
M501.009491,432.743591 
	C496.047638,432.744110 491.583618,432.744110 486.131104,432.744110 
	C494.769531,409.217224 503.237549,386.154541 512.155090,361.867462 
	C521.750732,385.949921 530.915405,408.950958 540.395325,432.743103 
	C526.904968,432.743103 514.206116,432.743103 501.009491,432.743591 
z"/>
<path fill="#0A0A0A" opacity="1.000000" stroke="none" 
	d="
M367.994080,425.547577 
	C354.236145,425.545837 340.977173,425.545837 327.144135,425.545837 
	C328.221924,414.889038 330.950775,405.454163 340.607056,400.054443 
	C350.940033,394.276306 361.646271,394.343445 371.921600,400.485107 
	C381.199432,406.030609 383.126801,415.053345 383.114990,425.549316 
	C378.027222,425.549316 373.260101,425.549316 367.994080,425.547577 
z"/>
<path fill="#091F02" opacity="1.000000" stroke="none" 
	d="
M842.768799,45.142036 
	C844.424622,47.585171 846.641724,49.891682 846.806458,52.336456 
	C847.377502,60.814819 847.184204,69.428123 841.615967,76.552849 
	C839.371277,79.424995 836.201965,81.582611 833.412354,84.018410 
	C830.585510,86.486717 826.812744,88.376228 825.032532,91.437149 
	C820.876282,98.583260 815.436096,103.758690 807.715881,106.630501 
	C806.184265,107.200218 804.774048,108.094620 803.303833,108.831284 
	C801.668640,109.650635 800.086975,111.001930 798.381287,111.185486 
	C788.752258,112.221687 779.151550,112.271523 769.894592,108.761795 
	C769.541565,108.627945 769.386230,107.972740 769.295654,107.821861 
	C773.785706,102.863770 777.859497,97.705307 782.651245,93.333893 
	C785.317444,90.901634 789.168030,89.756882 792.512878,88.087959 
	C793.234863,87.727737 794.556213,87.837936 794.792908,87.343987 
	C799.165955,78.218674 809.943909,76.779442 815.933899,69.598305 
	C820.705566,63.877861 825.378906,58.012615 830.708496,52.843277 
	C834.009827,49.641262 838.456543,47.620068 842.768799,45.142036 
z"/>
</svg>